<?xml version="1.0" standalone="no"?>
<!DOCTYPE svg PUBLIC "-//W3C//DTD SVG 20010904//EN"
 "http://www.w3.org/TR/2001/REC-SVG-20010904/DTD/svg10.dtd">
<svg version="1.0" xmlns="http://www.w3.org/2000/svg"
 width="270.000000pt" height="270.000000pt" viewBox="0 0 270.000000 270.000000"
 preserveAspectRatio="xMidYMid meet">
<metadata>
Created by potrace 1.11, written by Peter Selinger 2001-2013
</metadata>
<g transform="translate(0.000000,270.000000) scale(0.100000,-0.100000)"
fill="#000000" stroke="none">
<path d="M1210 2660 c-25 -4 -65 -10 -90 -13 -136 -18 -322 -69 -424 -117 -82
-39 -168 -121 -241 -230 -16 -25 -33 -47 -36 -50 -16 -13 -83 -148 -112 -222
l-32 -83 -4 -240 c-7 -410 -6 -478 8 -520 14 -44 71 -159 107 -216 13 -20 49
-86 81 -145 67 -123 86 -157 93 -164 3 -3 23 -34 45 -70 54 -88 54 -120 1
-295 -2 -5 -7 -25 -11 -43 -4 -18 -12 -35 -16 -38 -5 -3 -9 -11 -9 -18 0 -8
-10 -35 -22 -62 -12 -27 -23 -53 -24 -59 -1 -5 -6 -25 -9 -42 l-7 -33 806 0
806 0 9 23 c5 12 25 57 45 100 40 84 56 124 61 147 2 8 10 42 18 75 9 33 18
72 21 87 2 15 29 130 60 255 30 125 58 242 62 258 12 54 17 395 5 409 -13 15
-37 128 -46 216 -18 181 -60 303 -151 446 -60 94 -224 325 -258 363 -127 142
-264 231 -413 268 -72 17 -248 24 -323 13z"/>
</g>
</svg>
